<svg width="28" height="34" viewBox="0 0 28 34" fill="none" xmlns="http://www.w3.org/2000/svg">
<g clip-path="url(#clip0_2546_32659)">
<path d="M-10 44.1162H9.61914V47.9912H-14V17.5625H-10V44.1162ZM13.6191 40.2412V44.1162H9.61914V40.2412H13.6191ZM-2 36.3037H9.61914V40.2412H-6V17.5625H-2V36.3037ZM17.6191 40.2412H13.6191V36.3037H17.6191V40.2412ZM21.6191 36.3037H17.6191V32.4287H21.6191V36.3037ZM13.6191 32.4287V36.3037H9.61914V32.4287H13.6191ZM9.61914 32.4287H1.80859V17.5625H9.61914V32.4287ZM17.6191 32.4287H13.6191V13.6875H1.80859V9.8125H17.6191V32.4287ZM25.4277 32.4287H21.6191V5.875H1.80859V2H25.4277V32.4287ZM-6 17.5625H-10V13.6875H-6V17.5625ZM1.80859 17.5625H-2V13.6875H1.80859V17.5625ZM-2 13.6875H-6V9.8125H-2V13.6875ZM1.80859 9.8125H-2V5.875H1.80859V9.8125Z" fill="#3771FE"/>
</g>
<defs>
<clipPath id="clip0_2546_32659">
<rect width="26" height="32" fill="white" transform="translate(2)"/>
</clipPath>
</defs>
</svg>
