<svg width="31" height="28" viewBox="0 0 31 28" fill="none" xmlns="http://www.w3.org/2000/svg">
<path d="M18.2182 15.6583L9.5154 9.58487L14.373 2.62006C16.4869 0.217519 19.4819 0.866857 20.7772 1.48326C24.8844 4.00449 24.0217 7.34233 23.077 8.6961L18.2182 15.6583Z" stroke="#223258" stroke-width="1.75"/>
<path d="M7.27854 11.9149L16.1214 18.1704L11.2089 25.3106C9.06971 27.7727 6.02976 27.0993 4.71423 26.4634C0.541691 23.8655 1.40943 20.4403 2.36487 19.0525L7.27854 11.9149Z" fill="#223258" stroke="#223258" stroke-width="1.75"/>
<path d="M29.7529 19.3946C30.1322 20.1818 30.3451 21.0643 30.3451 21.9966C30.3451 25.3122 27.6573 28 24.3417 28C22.98 28 21.7249 27.5456 20.7176 26.7815L29.7529 19.3946ZM24.3417 15.9933C26.1375 15.9933 27.748 16.7828 28.8481 18.0325L19.5597 25.6247C18.7939 24.6168 18.3384 23.3602 18.3384 21.9966C18.3384 18.6811 21.0261 15.9933 24.3417 15.9933Z" fill="#223258"/>
</svg>
