<svg width="29" height="29" viewBox="0 0 29 29" fill="none" xmlns="http://www.w3.org/2000/svg">
<path d="M26.1693 15.0216C26.1693 14.4483 26.1631 13.2916 26.1508 12.7166C26.0747 9.14015 26.0365 7.35192 24.7169 6.02726C23.3972 4.70259 21.5606 4.65645 17.8873 4.56415C15.6234 4.50726 13.3818 4.50726 11.1179 4.56414C7.44466 4.65642 5.60803 4.70256 4.28838 6.02724C2.96873 7.35191 2.9306 9.14014 2.85432 12.7166C2.8298 13.8666 2.82981 15.0097 2.85434 16.1597C2.9306 19.7362 2.96874 21.5244 4.28839 22.8491C5.60803 24.1738 7.44466 24.2198 11.1179 24.3121C12.0545 24.3357 12.9872 24.3495 13.9193 24.3535" stroke="#223258" stroke-width="1.75" stroke-linecap="round" stroke-linejoin="round"/>
<path d="M2.83594 7.43555L10.9011 12.0143C13.8478 13.6871 15.1575 13.6871 18.1041 12.0143L26.1693 7.43555" stroke="#223258" stroke-width="1.75" stroke-linejoin="round"/>
<path d="M26.1693 20.86H16.8359M26.1693 20.86C26.1693 20.0431 23.8426 18.5168 23.2526 17.9434M26.1693 20.86C26.1693 21.6769 23.8426 23.2033 23.2526 23.7767" stroke="#223258" stroke-width="1.75" stroke-linecap="round" stroke-linejoin="round"/>
</svg>
