<svg width="251" height="73" viewBox="0 0 251 73" fill="none" xmlns="http://www.w3.org/2000/svg">
<path d="M4.08887 19.0078V67.7383H42.3936V72.5029H0.338867V19.0078H4.08887ZM46.1436 62.9727V67.7383H42.3936V62.9727H46.1436ZM11.5889 19.0078V58.2227H42.3936V62.9727H7.83887V19.0078H11.5889ZM49.8936 62.9727H46.1436V58.2227H49.8936V62.9727ZM53.6436 58.2227H49.8936V53.457H53.6436V58.2227ZM46.1436 53.457V58.2227H42.3936V53.457H46.1436ZM42.3936 19.0078V53.457H15.3467V19.0078H42.3936ZM49.8936 53.457H46.1436V14.2891H15.3467V9.52344H49.8936V53.457ZM57.4014 53.457H53.6436V4.77344H15.3467V0.0078125H57.4014V53.457ZM15.3467 19.0078H11.5889V14.2891H15.3467V19.0078ZM7.83887 19.0078H4.08887V14.2891H7.83887V19.0078ZM11.5889 14.2891H7.83887V9.52344H11.5889V14.2891ZM15.3467 9.52344H11.5889V4.77344H15.3467V9.52344Z" fill="url(#paint0_linear_2543_31270)"/>
<path d="M135.267 46.6953C137.37 46.6953 139.086 48.3688 139.086 50.4715C139.086 52.5741 137.37 54.3335 135.267 54.3335C133.165 54.3335 131.448 52.5741 131.448 50.4715C131.448 48.3688 133.165 46.6953 135.267 46.6953Z" fill="#214498"/>
<path d="M120.169 39.8264L129.309 53.472H121.671L113.819 40.4271H113.733V53.472H107.425V21.1172H115.964C122.358 21.1172 126.778 23.9493 126.778 30.858C126.778 34.9774 124.503 39.0969 120.169 39.8264ZM113.733 26.2665V36.0073H114.548C118.024 36.0073 120.47 34.9774 120.47 31.0296C120.47 27.0389 117.938 26.2665 114.591 26.2665H113.733Z" fill="#214498"/>
<path d="M79.6904 53.472V21.1172H88.7017C98.0563 21.1172 104.321 28.1117 104.321 37.3375C104.321 46.4347 97.8847 53.472 88.6588 53.472H79.6904ZM85.9983 26.6098V47.9794H87.0282C94.7951 47.9794 97.7989 43.6884 97.7989 37.2946C97.7989 30.2572 94.1943 26.6098 87.0282 26.6098H85.9983Z" fill="#214498"/>
<path d="M244.952 37.2349C244.952 46.7612 238.816 54.3135 228.946 54.3135C219.077 54.3135 212.94 46.7612 212.94 37.2349C212.94 27.6229 219.291 20.2422 228.946 20.2422C238.601 20.2422 244.952 27.6229 244.952 37.2349ZM238.43 36.9775C238.43 31.7423 234.911 26.4643 228.946 26.4643C222.982 26.4643 219.463 31.7423 219.463 36.9775C219.463 41.9551 221.952 48.0914 228.946 48.0914C235.941 48.0914 238.43 41.9551 238.43 36.9775Z" fill="#214498"/>
<path d="M210.677 26.602H200.936V33.7252H210.076V39.2178H200.936V53.4642H194.628V21.1094H210.677V26.602Z" fill="#214498"/>
<path d="M162.065 53.4553V20.2422H166.614L183.65 42.8563H183.735V21.1004H190.043V54.0989H185.495L168.459 31.4849H168.373V53.4553H162.065Z" fill="#214498"/>
<path d="M157.483 21.1094V53.4642H151.175V21.1094H157.483Z" fill="#214498"/>
<defs>
<linearGradient id="paint0_linear_2543_31270" x1="55.8913" y1="-0.632925" x2="1.7897" y2="73.0492" gradientUnits="userSpaceOnUse">
<stop stop-color="#9BB8FF"/>
<stop offset="0.45098" stop-color="#3771FE"/>
<stop offset="1" stop-color="#214498"/>
</linearGradient>
</defs>
</svg>
