<svg width="1183" height="1611" viewBox="0 0 1183 1611" fill="none" xmlns="http://www.w3.org/2000/svg">
<path d="M73.9834 428.681V1492.76H886.779V1611H0.0371094V428.681H73.9834ZM960.725 1389.28V1492.76H886.779V1389.28H960.725ZM221.761 428.681V1285.8H886.779V1389.28H147.814V428.681H221.761ZM1034.56 1389.28H960.725V1285.8H1034.56V1389.28ZM1108.5 1285.8H1034.56V1182.32H1108.5V1285.8ZM960.725 1182.32V1285.8H886.779V1182.32H960.725ZM886.779 428.681V1182.32H295.592V428.681H886.779ZM1034.56 1182.32H960.725V310.436H295.592V206.957H1034.56V1182.32ZM1182.33 1182.32H1108.5V103.479H295.592V0H1182.33V1182.32ZM295.592 428.681H221.761V310.436H295.592V428.681ZM147.814 428.681H73.9834V310.436H147.814V428.681ZM221.761 310.436H147.814V206.957H221.761V310.436ZM295.592 206.957H221.761V103.479H295.592V206.957Z" fill="url(#paint0_radial_1718_15026)"/>
<defs>
<radialGradient id="paint0_radial_1718_15026" cx="0" cy="0" r="1" gradientUnits="userSpaceOnUse" gradientTransform="translate(1185.16 1.74562e-05) rotate(126.356) scale(1999.28 1464.16)">
<stop stop-color="#3771FE"/>
<stop offset="1" stop-color="#214498"/>
</radialGradient>
</defs>
</svg>
