<svg width="19" height="19" viewBox="0 0 19 19" fill="none" xmlns="http://www.w3.org/2000/svg">
<g clip-path="url(#clip0_2403_73723)">
<path d="M9.49901 0.648087C14.3087 0.648087 18.2085 4.54706 18.2087 9.35675C18.2087 14.1666 14.3088 18.0664 9.49901 18.0664C4.68932 18.0662 0.790349 14.1665 0.790349 9.35675C0.790521 4.54716 4.68943 0.648259 9.49901 0.648087ZM9.5 2.51331C5.71775 2.51332 2.65163 5.57944 2.65162 9.36169C2.65162 13.1439 5.71774 16.2101 9.5 16.2101C13.2823 16.2101 16.3484 13.144 16.3484 9.36169C16.3484 5.57943 13.2823 2.51331 9.5 2.51331Z" fill="#9599A8"/>
<path d="M9.50099 4.32321C12.2776 4.32321 14.5286 6.57424 14.5286 9.35082C14.5285 12.1273 12.2775 14.3784 9.50099 14.3784C6.72451 14.3784 4.47351 12.1273 4.47338 9.35082C4.47338 6.57426 6.72443 4.32324 9.50099 4.32321ZM9.50198 6.14101C7.73108 6.14101 6.29513 7.57696 6.29513 9.34786C6.29532 11.1186 7.7312 12.5537 9.50198 12.5537C11.2726 12.5535 12.7076 11.1185 12.7078 9.34786C12.7078 7.57708 11.2727 6.1412 9.50198 6.14101Z" fill="#9599A8"/>
<path d="M9.49844 10.7377C10.2636 10.7377 10.8839 10.1174 10.8839 9.35222C10.8839 8.58703 10.2636 7.96672 9.49844 7.96672C8.73325 7.96672 8.11294 8.58703 8.11294 9.35222C8.11294 10.1174 8.73325 10.7377 9.49844 10.7377Z" fill="#9599A8"/>
<path d="M16.0717 3.88935L9.73787 9.55016H9.69828L9.30241 9.1543V9.11471L15.6362 3.41431H15.6758L16.0321 3.81017C16.0717 3.84976 16.0717 3.84976 16.0717 3.88935Z" fill="#9599A8"/>
<path d="M17.1929 2.2784L15.7736 3.59231L15.5778 2.53108L16.9971 1.21714L17.1929 2.2784Z" fill="#9599A8"/>
<path d="M16.7944 3.87552L18.2416 2.58846L17.2186 2.2604L15.7714 3.57267L16.7944 3.87552Z" fill="#9599A8"/>
</g>
<defs>
<clipPath id="clip0_2403_73723">
<rect width="18.7826" height="17.5617" fill="white" transform="translate(0 0.648087) scale(1.01165)"/>
</clipPath>
</defs>
</svg>
