<svg width="151" height="44" viewBox="0 0 151 44" fill="none" xmlns="http://www.w3.org/2000/svg">
<path d="M2.55664 11.3652V40.5752H23.6162V43.4209H0.5V11.3652H2.55664ZM25.6729 37.7275V40.5752H23.6162V37.7275H25.6729ZM6.67578 11.3652V34.8682H23.6162V37.7275H4.61914V11.3652H6.67578ZM27.7354 37.7275H25.6729V34.8682H27.7354V37.7275ZM29.792 34.8682H27.7354V32.0205H29.792V34.8682ZM25.6729 32.0205V34.8682H23.6162V32.0205H25.6729ZM23.6162 11.3652V32.0205H8.67773V11.3652H23.6162ZM27.7354 32.0205H25.6729V8.54688H8.67773V5.69922H27.7354V32.0205ZM31.8486 32.0205H29.792V2.83984H8.67773V-0.0078125H31.8486V32.0205ZM8.67773 11.3652H6.67578V8.54688H8.67773V11.3652ZM4.61914 11.3652H2.55664V8.54688H4.61914V11.3652ZM6.67578 8.54688H4.61914V5.69922H6.67578V8.54688ZM8.67773 5.69922H6.67578V2.83984H8.67773V5.69922Z" fill="url(#paint0_linear_2557_43273)"/>
<path d="M81.351 27.9688C82.6109 27.9688 83.6395 28.9716 83.6395 30.2315C83.6395 31.4915 82.6109 32.5457 81.351 32.5457C80.091 32.5457 79.0625 31.4915 79.0625 30.2315C79.0625 28.9716 80.091 27.9688 81.351 27.9688Z" fill="#214498"/>
<path d="M72.3009 23.8516L77.7779 32.0285H73.2009L68.4954 24.2116H68.4439V32.0285H64.6641V12.6406H69.781C73.6123 12.6406 76.2608 14.3377 76.2608 18.4776C76.2608 20.946 74.898 23.4145 72.3009 23.8516ZM68.4439 15.7262V21.5632H68.9325C71.0153 21.5632 72.4809 20.946 72.4809 18.5804C72.4809 16.1891 70.9638 15.7262 68.9582 15.7262H68.4439Z" fill="#214498"/>
<path d="M48.0469 32.0285V12.6406H53.4467C59.0522 12.6406 62.8063 16.8319 62.8063 22.3603C62.8063 27.8115 58.9493 32.0285 53.421 32.0285H48.0469ZM51.8267 15.9319V28.7372H52.4439C57.098 28.7372 58.8979 26.1658 58.8979 22.3346C58.8979 18.1176 56.738 15.9319 52.4439 15.9319H51.8267Z" fill="#214498"/>
<path d="M147.081 22.2997C147.081 28.008 143.404 32.5336 137.49 32.5336C131.575 32.5336 127.898 28.008 127.898 22.2997C127.898 16.5399 131.704 12.1172 137.49 12.1172C143.275 12.1172 147.081 16.5399 147.081 22.2997ZM143.172 22.1454C143.172 19.0084 141.064 15.8456 137.49 15.8456C133.915 15.8456 131.807 19.0084 131.807 22.1454C131.807 25.1281 133.298 28.8051 137.49 28.8051C141.681 28.8051 143.172 25.1281 143.172 22.1454Z" fill="#214498"/>
<path d="M126.543 15.9241H120.706V20.1925H126.183V23.4838H120.706V32.0207H116.926V12.6328H126.543V15.9241Z" fill="#214498"/>
<path d="M97.4141 32.0193V12.1172H100.14L110.348 25.6681H110.399V12.6315H114.179V32.405H111.454L101.245 18.8541H101.194V32.0193H97.4141Z" fill="#214498"/>
<path d="M94.6549 12.6328V32.0207H90.875V12.6328H94.6549Z" fill="#214498"/>
<defs>
<linearGradient id="paint0_linear_2557_43273" x1="32.9731" y1="-0.391651" x2="0.568096" y2="43.7638" gradientUnits="userSpaceOnUse">
<stop stop-color="#9BB8FF"/>
<stop offset="0.45098" stop-color="#3771FE"/>
<stop offset="1" stop-color="#214498"/>
</linearGradient>
</defs>
</svg>
