<svg xmlns="http://www.w3.org/2000/svg" xmlns:xlink="http://www.w3.org/1999/xlink" viewBox="0 0 76 76"><defs><style>.cls-1{fill:url(#linear-gradient);}.cls-2{isolation:isolate;}.cls-3{fill:#039;}.cls-4{mix-blend-mode:multiply;}.cls-5{mask:url(#mask);}.cls-6{fill:url(#linear-gradient-2);}.cls-7{fill:url(#linear-gradient-3);}.cls-8{fill:url(#linear-gradient-4);}.cls-9{fill:url(#linear-gradient-5);}.cls-10{fill:url(#radial-gradient);}.cls-11{fill:#626366;}.cls-12{filter:url(#luminosity-noclip);}</style><linearGradient id="linear-gradient" x1="1690.08" y1="-2395.36" x2="1690.79" y2="-2395.36" gradientTransform="matrix(24.97, 0, 0, -24.97, -42153.18, -59769.6)" gradientUnits="userSpaceOnUse"><stop offset="0" stop-color="#fff"/><stop offset="1"/></linearGradient><filter id="luminosity-noclip" x="15.12" y="15.69" width="73.83" height="73.53" filterUnits="userSpaceOnUse" color-interpolation-filters="sRGB"><feFlood flood-color="#fff" result="bg"/><feBlend in="SourceGraphic" in2="bg"/></filter><mask id="mask" x="15.12" y="15.69" width="73.83" height="73.53" maskUnits="userSpaceOnUse"><g class="cls-12"><rect class="cls-1" x="25.24" y="26.98" width="53.59" height="50.95" transform="translate(-21.59 46.23) rotate(-40.4)"/></g></mask><linearGradient id="linear-gradient-2" x1="28.36" y1="52.45" x2="75.71" y2="52.45" gradientUnits="userSpaceOnUse"><stop offset="0" stop-color="#231f20"/><stop offset="0.26" stop-color="#404041"/><stop offset="0.34" stop-color="#474748"/><stop offset="0.45" stop-color="#5a5a5b"/><stop offset="0.59" stop-color="#79797a"/><stop offset="0.74" stop-color="#a5a5a5"/><stop offset="0.91" stop-color="#dcdcdc"/><stop offset="1" stop-color="#fff"/></linearGradient><linearGradient id="linear-gradient-3" x1="12.86" y1="44.29" x2="62.66" y2="44.29" gradientUnits="userSpaceOnUse"><stop offset="0" stop-color="#fff"/><stop offset="0.27" stop-color="#fff"/><stop offset="0.36" stop-color="#f2f2f2"/><stop offset="0.51" stop-color="#cfcfcf"/><stop offset="0.72" stop-color="#969697"/><stop offset="0.97" stop-color="#484849"/><stop offset="1" stop-color="#404041"/></linearGradient><linearGradient id="linear-gradient-4" x1="14.75" y1="29.79" x2="37.76" y2="29.79" gradientUnits="userSpaceOnUse"><stop offset="0.04" stop-color="#454547"/><stop offset="0.51" stop-color="#858688"/><stop offset="0.96" stop-color="#c5c7c9"/></linearGradient><linearGradient id="linear-gradient-5" x1="37.76" y1="29.79" x2="60.76" y2="29.79" gradientUnits="userSpaceOnUse"><stop offset="0" stop-color="#bbbdbf"/><stop offset="0.33" stop-color="#bbbdbf"/><stop offset="0.43" stop-color="#c3c4c6"/><stop offset="0.57" stop-color="#d7d9da"/><stop offset="0.75" stop-color="#f9f9fa"/><stop offset="0.78" stop-color="#fff"/><stop offset="1" stop-color="#fff"/></linearGradient><radialGradient id="radial-gradient" cx="-22.71" cy="45.81" r="16.68" gradientTransform="translate(60.96 -13.71) scale(0.83)" gradientUnits="userSpaceOnUse"><stop offset="0" stop-color="#6d6e70"/><stop offset="0.35" stop-color="#a5a6a7"/><stop offset="0.79" stop-color="#e6e6e6"/><stop offset="1" stop-color="#fff"/></radialGradient></defs><g class="cls-2"><g id="Graphics"><path class="cls-3" d="M38.06,75.88A37.88,37.88,0,1,0,.18,38,37.88,37.88,0,0,0,38.06,75.88"/><g class="cls-4"><g class="cls-5"><path class="cls-6" d="M59.63,40.45c-17.27,0-31.27,5.38-31.27,12s14,12,31.27,12c2,0,3.88-.07,5.75-.2A37.73,37.73,0,0,0,75.71,42.16a72.76,72.76,0,0,0-16.08-1.71"/></g></g><path class="cls-7" d="M15,28.47a20.58,20.58,0,0,0-2.17,9.18c0,12.4,11.14,22.46,24.9,22.46s24.9-10.06,24.9-22.46a20.45,20.45,0,0,0-2.18-9.18Z"/>"/></g></g></svg>