<svg width="36" height="36" viewBox="0 0 36 36" fill="none" xmlns="http://www.w3.org/2000/svg">
<path d="M33 18C33 12.3754 33 9.5631 31.5676 7.5916C31.105 6.9549 30.5451 6.39497 29.9083 5.93237C27.9369 4.5 25.1246 4.5 19.5 4.5H16.5C10.8754 4.5 8.0631 4.5 6.0916 5.93237C5.4549 6.39497 4.89497 6.9549 4.43237 7.5916C3 9.5631 3 12.3754 3 18C3 23.6246 3 26.4369 4.43237 28.4083C4.89497 29.0451 5.4549 29.605 6.0916 30.0676C8.0631 31.5 10.8754 31.5 16.5 31.5H19.5C25.1246 31.5 27.9369 31.5 29.9083 30.0676C30.5451 29.605 31.105 29.0451 31.5676 28.4083C33 26.4369 33 23.6246 33 18Z" stroke="#223258" stroke-width="2.25" stroke-linejoin="round"/>
<path d="M21.75 5.25V30.75" stroke="#223258" stroke-width="2.25" stroke-linejoin="round"/>
<path d="M28.5 10.5H26.25" stroke="#223258" stroke-width="2.25" stroke-linecap="round" stroke-linejoin="round"/>
<path d="M28.5 16.5H26.25" stroke="#223258" stroke-width="2.25" stroke-linecap="round" stroke-linejoin="round"/>
<path d="M12 15L13.8398 16.5858C14.6133 17.2524 15 17.5858 15 18C15 18.4142 14.6133 18.7476 13.8398 19.4142L12 21" stroke="#223258" stroke-width="2.25" stroke-linecap="round" stroke-linejoin="round"/>
</svg>
