<svg width="19" height="19" viewBox="0 0 19 19" fill="none" xmlns="http://www.w3.org/2000/svg">
<path d="M15.8346 10.2865V8.4315C15.8346 7.78428 15.8346 7.46068 15.7141 7.16971C15.5936 6.87874 15.3648 6.64993 14.9071 6.1923L11.1574 2.44253C10.7624 2.04758 10.565 1.8501 10.3203 1.73309C10.2694 1.70875 10.2173 1.68715 10.1641 1.66838C9.9083 1.57813 9.62908 1.57812 9.07048 1.57812C6.50153 1.57812 5.21705 1.57812 4.34702 2.2796C4.17126 2.42131 4.01116 2.58141 3.86944 2.75718C3.16797 3.6272 3.16797 4.91169 3.16797 7.48066V11.0781C3.16797 14.0637 3.16797 15.5565 4.09546 16.4839C4.93708 17.3256 6.24415 17.4035 8.70964 17.4107M10.293 1.97396V2.36979C10.293 4.60897 10.293 5.72855 10.9886 6.42417C11.6842 7.11979 12.8038 7.11979 15.043 7.11979H15.4388" stroke="#263969" stroke-width="1.29247"/>
<path d="M15.8333 17.4115L14.1335 15.7117M14.1335 15.7117C14.2243 15.621 14.3085 15.524 14.3857 15.4212C14.7266 14.9676 14.9285 14.4036 14.9285 13.7924C14.9285 12.2933 13.7133 11.0781 12.2143 11.0781C10.7152 11.0781 9.5 12.2933 9.5 13.7924C9.5 15.2915 10.7152 16.5067 12.2143 16.5067C12.9638 16.5067 13.6424 16.2029 14.1335 15.7117Z" stroke="#263969" stroke-width="1.29247"/>
</svg>
