<svg width="24" height="24" viewBox="0 0 24 24" fill="none" xmlns="http://www.w3.org/2000/svg">
<path d="M9.40104 4.5H8.35938H2.10938V10.5V14.5V20.5H8.35938H12.566H18.776V17" stroke="#223258" stroke-width="1.5" stroke-linecap="square"/>
<path d="M16.1667 3.85355V7H12.5208C9.64435 7 7.3125 9.23858 7.3125 12V14.5C7.3125 14.5 8.875 11 13.1157 11H16.1667V14.1464C16.1667 14.3417 16.3316 14.5 16.535 14.5C16.6326 14.5 16.7263 14.4628 16.7954 14.3964L21.8958 9L16.7954 3.60355C16.7263 3.53725 16.6326 3.5 16.535 3.5C16.3316 3.5 16.1667 3.65829 16.1667 3.85355Z" stroke="#223258" stroke-width="1.5" stroke-linecap="round"/>
</svg>
